<?xml version="1.0" encoding="UTF-8" standalone="no"?><!-- Generator: Gravit.io --><svg xmlns="http://www.w3.org/2000/svg" xmlns:xlink="http://www.w3.org/1999/xlink" style="isolation:isolate" viewBox="813.5 284.5 260 79" width="260pt" height="79pt"><g><path d=" M 815 309 L 827 309 L 827 360 L 815 360 L 815 309 Z " fill="rgb(141,144,150)" vector-effect="non-scaling-stroke" stroke-width="1" stroke="rgb(141,144,150)" stroke-linejoin="miter" stroke-linecap="square" stroke-miterlimit="3"/><path d=" M 842 309 L 853 309 L 853 317 C 853 311.656 859.75 307 870 307 C 883.75 307 889 317.656 889 325 L 889 360 L 877 360 L 877 328 C 877 322.438 873.531 317 866 317 C 860.406 317 854 322.625 854 329 L 854 360 L 841 360 L 842 309 Z " fill="rgb(141,144,150)" vector-effect="non-scaling-stroke" stroke-width="1" stroke="rgb(141,144,150)" stroke-linejoin="miter" stroke-linecap="square" stroke-miterlimit="3"/><path d=" M 897 309 L 897 320 L 910 320 L 910 360 L 923 360 L 923 320 L 938 320 L 938 309 L 897 309 Z " fill="rgb(141,144,150)" vector-effect="non-scaling-stroke" stroke-width="1" stroke="rgb(141,144,150)" stroke-linejoin="miter" stroke-linecap="square" stroke-miterlimit="3"/><path d=" M 948 309 L 960 309 L 960 343 C 960 354.469 982 354.891 982 343 L 982 309 L 995 309 L 995 360 L 984 360 L 984 353 C 977.112 359.824 972.188 362 967 362 C 956.438 362 948 355.875 948 345 L 948 309 Z " fill="rgb(141,144,150)" vector-effect="non-scaling-stroke" stroke-width="1" stroke="rgb(141,144,150)" stroke-linejoin="miter" stroke-linecap="square" stroke-miterlimit="3"/><path d=" M 1008 309 L 1022 309 L 1022 360 L 1008 360 L 1008 309 Z " fill="rgb(141,144,150)" vector-effect="non-scaling-stroke" stroke-width="1" stroke="rgb(141,144,150)" stroke-linejoin="miter" stroke-linecap="square" stroke-miterlimit="3"/><path d=" M 1031 309 L 1072 309 L 1072 320 L 1058 320 L 1058 360 L 1046 360 L 1046 320 L 1031 320 L 1031 309 Z " fill="rgb(141,144,150)" vector-effect="non-scaling-stroke" stroke-width="1" stroke="rgb(141,144,150)" stroke-linejoin="miter" stroke-linecap="square" stroke-miterlimit="3"/><path d=" M 917 286 C 921.328 286 925 289.828 925 294 C 925 298.969 922.078 302 917 302 C 912.375 302 909 298.547 909 294 C 909 289.547 913.031 286 917 286 Z " fill="rgb(141,144,150)" vector-effect="non-scaling-stroke" stroke-width="1" stroke="rgb(141,144,150)" stroke-linejoin="miter" stroke-linecap="square" stroke-miterlimit="3"/><path d=" M 1052 286 C 1056.469 286 1060 289.5 1060 294 C 1060 298.922 1056.75 302 1052 302 C 1047.656 302 1044 298.406 1044 294 C 1043.87 289.934 1046.578 286 1052 286 Z " fill="rgb(141,144,150)" vector-effect="non-scaling-stroke" stroke-width="1" stroke="rgb(141,144,150)" stroke-linejoin="miter" stroke-linecap="square" stroke-miterlimit="3"/></g></svg>