<?xml version="1.0" encoding="UTF-8" standalone="no"?><!-- Generator: Gravit.io --><svg xmlns="http://www.w3.org/2000/svg" xmlns:xlink="http://www.w3.org/1999/xlink" style="isolation:isolate" viewBox="599.5 408.5 55 55" width="55pt" height="55pt"><g><ellipse vector-effect="non-scaling-stroke" cx="627" cy="438" rx="18.5" ry="21" fill="rgb(255,255,255)"/><path d=" M 626 410 C 642.891 410 653 419.25 653 437 C 653 452.859 641.906 462 628 462 C 611.953 462 601 450.891 601 435 C 601 420.094 614.906 410 626 410 Z  M 627 417 C 636.5 427.099 640 433.313 640 441 C 640 446.813 633.094 449.625 627 455 C 621.49 448.706 613 447.75 613 441 C 613 432.188 619.103 424.483 627 417 Z " fill-rule="evenodd" fill="rgb(0,166,164)" vector-effect="non-scaling-stroke" stroke-width="1" stroke="rgb(0,166,164)" stroke-linejoin="miter" stroke-linecap="square" stroke-miterlimit="3"/><path d=" M 627 423 L 627 450 C 622.188 445.141 617 445.328 617 440 C 617 437.078 621.935 428.444 627 423 Z " fill="rgb(0,166,164)"/></g></svg>