<?xml version="1.0" encoding="UTF-8" standalone="no"?><!-- Generator: Gravit.io --><svg xmlns="http://www.w3.org/2000/svg" xmlns:xlink="http://www.w3.org/1999/xlink" style="isolation:isolate" viewBox="764 410.125 53.043 51.875" width="53.043pt" height="51.875pt"><g><ellipse vector-effect="non-scaling-stroke" cx="790.5217391304348" cy="436.0624999999999" rx="26.521739130434753" ry="25.937500000000057" fill="rgb(45,160,29)"/><path d=" M 792 419 L 792 446 L 802 446 C 806.583 446 810 441.792 810 436 C 810 430.729 805.458 426 798 426 L 798 430 C 802.583 430 805.708 431.354 805.708 436 C 805.708 438.479 804.208 442 801.708 442 L 796 442 L 796 422 C 794.755 419.824 793.432 418.834 792 419 Z " fill="rgb(255,255,255)"/><path d=" M 790 453 L 790 426 L 780 426 C 775.417 426 772 430.208 772 436 C 772 441.271 776.542 446 784 446 L 784 442 C 779.417 442 776.292 440.646 776.292 436 C 776.292 433.521 777.792 430 780.292 430 L 786 430 L 786 450 C 787.245 452.176 788.568 453.166 790 453 Z " fill="rgb(255,255,255)"/></g></svg>